<mxfile host="app.diagrams.net" modified="2021-05-08T11:50:26.589Z" agent="5.0 (Windows NT 10.0; Win64; x64) AppleWebKit/537.36 (KHTML, like Gecko) Chrome/88.0.4324.182 Safari/537.36" etag="5WsS9C6mQ7IA7aOn2ut9" version="14.6.10" type="github" pages="8">
  <diagram id="-muVetCGprohidL9E17A" name="首页">
    <mxGraphModel dx="868" dy="482" grid="0" gridSize="10" guides="1" tooltips="1" connect="1" arrows="1" fold="1" page="1" pageScale="1" pageWidth="827" pageHeight="1169" math="0" shadow="0">
      <root>
        <mxCell id="0" />
        <mxCell id="1" parent="0" />
        <mxCell id="ohln1rY9EhB7PHT9uB4L-3" value="" style="edgeStyle=orthogonalEdgeStyle;rounded=0;orthogonalLoop=1;jettySize=auto;html=1;" parent="1" source="ohln1rY9EhB7PHT9uB4L-1" target="ohln1rY9EhB7PHT9uB4L-2" edge="1">
          <mxGeometry relative="1" as="geometry" />
        </mxCell>
        <mxCell id="ohln1rY9EhB7PHT9uB4L-1" value="开始" style="rounded=1;whiteSpace=wrap;html=1;" parent="1" vertex="1">
          <mxGeometry x="30" y="120" width="120" height="60" as="geometry" />
        </mxCell>
        <mxCell id="ohln1rY9EhB7PHT9uB4L-9" value="" style="edgeStyle=orthogonalEdgeStyle;rounded=0;orthogonalLoop=1;jettySize=auto;html=1;" parent="1" source="ohln1rY9EhB7PHT9uB4L-2" target="ohln1rY9EhB7PHT9uB4L-8" edge="1">
          <mxGeometry relative="1" as="geometry" />
        </mxCell>
        <mxCell id="ohln1rY9EhB7PHT9uB4L-2" value="进入首页" style="rounded=0;whiteSpace=wrap;html=1;" parent="1" vertex="1">
          <mxGeometry x="210" y="120" width="120" height="60" as="geometry" />
        </mxCell>
        <mxCell id="ohln1rY9EhB7PHT9uB4L-11" value="是" style="edgeStyle=orthogonalEdgeStyle;rounded=0;orthogonalLoop=1;jettySize=auto;html=1;" parent="1" source="ohln1rY9EhB7PHT9uB4L-8" target="ohln1rY9EhB7PHT9uB4L-10" edge="1">
          <mxGeometry relative="1" as="geometry" />
        </mxCell>
        <mxCell id="ohln1rY9EhB7PHT9uB4L-15" value="否" style="edgeStyle=orthogonalEdgeStyle;rounded=0;orthogonalLoop=1;jettySize=auto;html=1;" parent="1" source="ohln1rY9EhB7PHT9uB4L-8" target="ohln1rY9EhB7PHT9uB4L-14" edge="1">
          <mxGeometry relative="1" as="geometry" />
        </mxCell>
        <mxCell id="ohln1rY9EhB7PHT9uB4L-8" value="点击Banner" style="rhombus;whiteSpace=wrap;html=1;rounded=0;" parent="1" vertex="1">
          <mxGeometry x="230" y="210" width="80" height="80" as="geometry" />
        </mxCell>
        <mxCell id="ohln1rY9EhB7PHT9uB4L-31" style="edgeStyle=orthogonalEdgeStyle;rounded=0;orthogonalLoop=1;jettySize=auto;html=1;exitX=1;exitY=0.5;exitDx=0;exitDy=0;" parent="1" source="ohln1rY9EhB7PHT9uB4L-10" edge="1">
          <mxGeometry relative="1" as="geometry">
            <mxPoint x="530" y="370" as="targetPoint" />
          </mxGeometry>
        </mxCell>
        <mxCell id="ohln1rY9EhB7PHT9uB4L-10" value="跳转链接" style="whiteSpace=wrap;html=1;rounded=0;" parent="1" vertex="1">
          <mxGeometry x="370" y="220" width="120" height="60" as="geometry" />
        </mxCell>
        <mxCell id="ohln1rY9EhB7PHT9uB4L-17" value="否" style="edgeStyle=orthogonalEdgeStyle;rounded=0;orthogonalLoop=1;jettySize=auto;html=1;" parent="1" source="ohln1rY9EhB7PHT9uB4L-14" target="ohln1rY9EhB7PHT9uB4L-16" edge="1">
          <mxGeometry relative="1" as="geometry" />
        </mxCell>
        <mxCell id="ohln1rY9EhB7PHT9uB4L-25" value="是" style="edgeStyle=orthogonalEdgeStyle;rounded=0;orthogonalLoop=1;jettySize=auto;html=1;" parent="1" source="ohln1rY9EhB7PHT9uB4L-14" target="ohln1rY9EhB7PHT9uB4L-24" edge="1">
          <mxGeometry relative="1" as="geometry" />
        </mxCell>
        <mxCell id="ohln1rY9EhB7PHT9uB4L-14" value="点击课程" style="rhombus;whiteSpace=wrap;html=1;rounded=0;" parent="1" vertex="1">
          <mxGeometry x="230" y="330" width="80" height="80" as="geometry" />
        </mxCell>
        <mxCell id="ohln1rY9EhB7PHT9uB4L-27" value="是" style="edgeStyle=orthogonalEdgeStyle;rounded=0;orthogonalLoop=1;jettySize=auto;html=1;" parent="1" source="ohln1rY9EhB7PHT9uB4L-16" target="ohln1rY9EhB7PHT9uB4L-26" edge="1">
          <mxGeometry relative="1" as="geometry" />
        </mxCell>
        <mxCell id="UWkMSbDkoD0yoZh-emvr-1" style="edgeStyle=orthogonalEdgeStyle;rounded=0;orthogonalLoop=1;jettySize=auto;html=1;entryX=0;entryY=0.75;entryDx=0;entryDy=0;" parent="1" source="ohln1rY9EhB7PHT9uB4L-16" target="ohln1rY9EhB7PHT9uB4L-2" edge="1">
          <mxGeometry relative="1" as="geometry">
            <Array as="points">
              <mxPoint x="190" y="490" />
              <mxPoint x="190" y="165" />
            </Array>
          </mxGeometry>
        </mxCell>
        <mxCell id="UWkMSbDkoD0yoZh-emvr-2" value="否" style="edgeLabel;html=1;align=center;verticalAlign=middle;resizable=0;points=[];" parent="UWkMSbDkoD0yoZh-emvr-1" vertex="1" connectable="0">
          <mxGeometry x="0.1688" y="2" relative="1" as="geometry">
            <mxPoint as="offset" />
          </mxGeometry>
        </mxCell>
        <mxCell id="ohln1rY9EhB7PHT9uB4L-16" value="点击讲师" style="rhombus;whiteSpace=wrap;html=1;rounded=0;" parent="1" vertex="1">
          <mxGeometry x="230" y="450" width="80" height="80" as="geometry" />
        </mxCell>
        <mxCell id="ohln1rY9EhB7PHT9uB4L-22" value="结束" style="rounded=1;whiteSpace=wrap;html=1;" parent="1" vertex="1">
          <mxGeometry x="30" y="460" width="120" height="60" as="geometry" />
        </mxCell>
        <mxCell id="ohln1rY9EhB7PHT9uB4L-30" style="edgeStyle=orthogonalEdgeStyle;rounded=0;orthogonalLoop=1;jettySize=auto;html=1;exitX=1;exitY=0.5;exitDx=0;exitDy=0;" parent="1" source="ohln1rY9EhB7PHT9uB4L-24" edge="1">
          <mxGeometry relative="1" as="geometry">
            <mxPoint x="430" y="550" as="targetPoint" />
            <Array as="points">
              <mxPoint x="530" y="370" />
              <mxPoint x="530" y="550" />
              <mxPoint x="430" y="550" />
            </Array>
          </mxGeometry>
        </mxCell>
        <mxCell id="ohln1rY9EhB7PHT9uB4L-24" value="课程详情" style="whiteSpace=wrap;html=1;rounded=0;" parent="1" vertex="1">
          <mxGeometry x="370" y="340" width="120" height="60" as="geometry" />
        </mxCell>
        <mxCell id="ohln1rY9EhB7PHT9uB4L-29" style="edgeStyle=orthogonalEdgeStyle;rounded=0;orthogonalLoop=1;jettySize=auto;html=1;entryX=0.5;entryY=1;entryDx=0;entryDy=0;" parent="1" source="ohln1rY9EhB7PHT9uB4L-26" target="ohln1rY9EhB7PHT9uB4L-22" edge="1">
          <mxGeometry relative="1" as="geometry">
            <mxPoint x="90" y="600" as="targetPoint" />
            <Array as="points">
              <mxPoint x="430" y="550" />
              <mxPoint x="90" y="550" />
            </Array>
          </mxGeometry>
        </mxCell>
        <mxCell id="ohln1rY9EhB7PHT9uB4L-26" value="讲师详情" style="whiteSpace=wrap;html=1;rounded=0;" parent="1" vertex="1">
          <mxGeometry x="370" y="460" width="120" height="60" as="geometry" />
        </mxCell>
      </root>
    </mxGraphModel>
  </diagram>
  <diagram id="BowaKGtA6qMr1BKsDz0Y" name="前台课程">
    <mxGraphModel dx="868" dy="482" grid="0" gridSize="10" guides="1" tooltips="1" connect="1" arrows="1" fold="1" page="1" pageScale="1" pageWidth="827" pageHeight="1169" math="0" shadow="0">
      <root>
        <mxCell id="KxBfUZQudGoGJKo_5Ngx-0" />
        <mxCell id="KxBfUZQudGoGJKo_5Ngx-1" parent="KxBfUZQudGoGJKo_5Ngx-0" />
        <mxCell id="zHdqhOE-mdiMgfRCY0YF-0" value="" style="edgeStyle=orthogonalEdgeStyle;rounded=0;orthogonalLoop=1;jettySize=auto;html=1;" parent="KxBfUZQudGoGJKo_5Ngx-1" source="Gzapa52f0Rgi2k--cGq4-0" target="K82Faf132YP2vwXWGpzv-0" edge="1">
          <mxGeometry relative="1" as="geometry" />
        </mxCell>
        <mxCell id="Gzapa52f0Rgi2k--cGq4-0" value="开始" style="rounded=1;whiteSpace=wrap;html=1;" parent="KxBfUZQudGoGJKo_5Ngx-1" vertex="1">
          <mxGeometry x="30" y="20" width="120" height="60" as="geometry" />
        </mxCell>
        <mxCell id="Gzapa52f0Rgi2k--cGq4-6" value="" style="edgeStyle=orthogonalEdgeStyle;rounded=0;orthogonalLoop=1;jettySize=auto;html=1;" parent="KxBfUZQudGoGJKo_5Ngx-1" source="Gzapa52f0Rgi2k--cGq4-3" target="Gzapa52f0Rgi2k--cGq4-5" edge="1">
          <mxGeometry relative="1" as="geometry" />
        </mxCell>
        <mxCell id="Gzapa52f0Rgi2k--cGq4-3" value="课程分类" style="rounded=0;whiteSpace=wrap;html=1;" parent="KxBfUZQudGoGJKo_5Ngx-1" vertex="1">
          <mxGeometry x="420" y="20" width="120" height="60" as="geometry" />
        </mxCell>
        <mxCell id="Gzapa52f0Rgi2k--cGq4-8" value="" style="edgeStyle=orthogonalEdgeStyle;rounded=0;orthogonalLoop=1;jettySize=auto;html=1;" parent="KxBfUZQudGoGJKo_5Ngx-1" source="Gzapa52f0Rgi2k--cGq4-5" target="Gzapa52f0Rgi2k--cGq4-7" edge="1">
          <mxGeometry relative="1" as="geometry" />
        </mxCell>
        <mxCell id="Gzapa52f0Rgi2k--cGq4-5" value="选择排序方式" style="rounded=0;whiteSpace=wrap;html=1;" parent="KxBfUZQudGoGJKo_5Ngx-1" vertex="1">
          <mxGeometry x="420" y="120" width="120" height="60" as="geometry" />
        </mxCell>
        <mxCell id="zHdqhOE-mdiMgfRCY0YF-3" value="" style="edgeStyle=orthogonalEdgeStyle;rounded=0;orthogonalLoop=1;jettySize=auto;html=1;" parent="KxBfUZQudGoGJKo_5Ngx-1" source="Gzapa52f0Rgi2k--cGq4-7" target="zHdqhOE-mdiMgfRCY0YF-2" edge="1">
          <mxGeometry relative="1" as="geometry" />
        </mxCell>
        <mxCell id="Gzapa52f0Rgi2k--cGq4-7" value="分页查询" style="rounded=0;whiteSpace=wrap;html=1;" parent="KxBfUZQudGoGJKo_5Ngx-1" vertex="1">
          <mxGeometry x="420" y="260" width="120" height="60" as="geometry" />
        </mxCell>
        <mxCell id="zHdqhOE-mdiMgfRCY0YF-1" value="" style="edgeStyle=orthogonalEdgeStyle;rounded=0;orthogonalLoop=1;jettySize=auto;html=1;" parent="KxBfUZQudGoGJKo_5Ngx-1" source="K82Faf132YP2vwXWGpzv-0" target="Gzapa52f0Rgi2k--cGq4-3" edge="1">
          <mxGeometry relative="1" as="geometry" />
        </mxCell>
        <mxCell id="K82Faf132YP2vwXWGpzv-0" value="前台课程" style="rounded=0;whiteSpace=wrap;html=1;" parent="KxBfUZQudGoGJKo_5Ngx-1" vertex="1">
          <mxGeometry x="220" y="20" width="120" height="60" as="geometry" />
        </mxCell>
        <mxCell id="zHdqhOE-mdiMgfRCY0YF-4" value="是" style="edgeStyle=orthogonalEdgeStyle;rounded=0;orthogonalLoop=1;jettySize=auto;html=1;" parent="KxBfUZQudGoGJKo_5Ngx-1" source="zHdqhOE-mdiMgfRCY0YF-2" edge="1">
          <mxGeometry relative="1" as="geometry">
            <mxPoint x="150" y="290" as="targetPoint" />
          </mxGeometry>
        </mxCell>
        <mxCell id="zHdqhOE-mdiMgfRCY0YF-5" style="edgeStyle=orthogonalEdgeStyle;rounded=0;orthogonalLoop=1;jettySize=auto;html=1;entryX=0.5;entryY=1;entryDx=0;entryDy=0;" parent="KxBfUZQudGoGJKo_5Ngx-1" source="zHdqhOE-mdiMgfRCY0YF-2" target="K82Faf132YP2vwXWGpzv-0" edge="1">
          <mxGeometry relative="1" as="geometry" />
        </mxCell>
        <mxCell id="zHdqhOE-mdiMgfRCY0YF-10" value="否" style="edgeLabel;html=1;align=center;verticalAlign=middle;resizable=0;points=[];" parent="zHdqhOE-mdiMgfRCY0YF-5" vertex="1" connectable="0">
          <mxGeometry x="-0.1765" y="-2" relative="1" as="geometry">
            <mxPoint as="offset" />
          </mxGeometry>
        </mxCell>
        <mxCell id="zHdqhOE-mdiMgfRCY0YF-2" value="选择课程" style="rhombus;whiteSpace=wrap;html=1;" parent="KxBfUZQudGoGJKo_5Ngx-1" vertex="1">
          <mxGeometry x="240" y="250" width="80" height="80" as="geometry" />
        </mxCell>
        <mxCell id="zHdqhOE-mdiMgfRCY0YF-6" value="结束" style="rounded=1;whiteSpace=wrap;html=1;" parent="KxBfUZQudGoGJKo_5Ngx-1" vertex="1">
          <mxGeometry x="30" y="140" width="120" height="60" as="geometry" />
        </mxCell>
        <mxCell id="zHdqhOE-mdiMgfRCY0YF-8" value="" style="edgeStyle=orthogonalEdgeStyle;rounded=0;orthogonalLoop=1;jettySize=auto;html=1;" parent="KxBfUZQudGoGJKo_5Ngx-1" source="zHdqhOE-mdiMgfRCY0YF-7" target="zHdqhOE-mdiMgfRCY0YF-6" edge="1">
          <mxGeometry relative="1" as="geometry" />
        </mxCell>
        <mxCell id="zHdqhOE-mdiMgfRCY0YF-7" value="课程详情" style="rounded=0;whiteSpace=wrap;html=1;" parent="KxBfUZQudGoGJKo_5Ngx-1" vertex="1">
          <mxGeometry x="30" y="260" width="120" height="60" as="geometry" />
        </mxCell>
      </root>
    </mxGraphModel>
  </diagram>
  <diagram id="MepPPicDG2moPX-8mlr6" name="前台讲师">
    <mxGraphModel dx="868" dy="482" grid="0" gridSize="10" guides="1" tooltips="1" connect="1" arrows="1" fold="1" page="1" pageScale="1" pageWidth="827" pageHeight="1169" math="0" shadow="0">
      <root>
        <mxCell id="RYURyzUsfLm2JB_ogs4t-0" />
        <mxCell id="RYURyzUsfLm2JB_ogs4t-1" parent="RYURyzUsfLm2JB_ogs4t-0" />
        <mxCell id="tb-qzKbm0wfXL_SfX2Sx-0" value="" style="edgeStyle=orthogonalEdgeStyle;rounded=0;orthogonalLoop=1;jettySize=auto;html=1;" parent="RYURyzUsfLm2JB_ogs4t-1" source="KsVBIH08QNQ1NyHOmJTG-0" target="KsVBIH08QNQ1NyHOmJTG-1" edge="1">
          <mxGeometry relative="1" as="geometry" />
        </mxCell>
        <mxCell id="KsVBIH08QNQ1NyHOmJTG-0" value="开始" style="rounded=1;whiteSpace=wrap;html=1;" parent="RYURyzUsfLm2JB_ogs4t-1" vertex="1">
          <mxGeometry x="20" y="80" width="120" height="60" as="geometry" />
        </mxCell>
        <mxCell id="tb-qzKbm0wfXL_SfX2Sx-2" value="" style="edgeStyle=orthogonalEdgeStyle;rounded=0;orthogonalLoop=1;jettySize=auto;html=1;" parent="RYURyzUsfLm2JB_ogs4t-1" source="KsVBIH08QNQ1NyHOmJTG-1" target="tb-qzKbm0wfXL_SfX2Sx-1" edge="1">
          <mxGeometry relative="1" as="geometry" />
        </mxCell>
        <mxCell id="KsVBIH08QNQ1NyHOmJTG-1" value="前台讲师" style="rounded=0;whiteSpace=wrap;html=1;" parent="RYURyzUsfLm2JB_ogs4t-1" vertex="1">
          <mxGeometry x="210" y="80" width="120" height="60" as="geometry" />
        </mxCell>
        <mxCell id="cSg_9xb-fCkNPHm3gPU1-3" value="" style="edgeStyle=orthogonalEdgeStyle;rounded=0;orthogonalLoop=1;jettySize=auto;html=1;" parent="RYURyzUsfLm2JB_ogs4t-1" source="tb-qzKbm0wfXL_SfX2Sx-1" target="cSg_9xb-fCkNPHm3gPU1-2" edge="1">
          <mxGeometry relative="1" as="geometry">
            <Array as="points">
              <mxPoint x="510" y="110" />
              <mxPoint x="510" y="260" />
            </Array>
          </mxGeometry>
        </mxCell>
        <mxCell id="tb-qzKbm0wfXL_SfX2Sx-1" value="分页查询" style="rounded=0;whiteSpace=wrap;html=1;" parent="RYURyzUsfLm2JB_ogs4t-1" vertex="1">
          <mxGeometry x="380" y="80" width="120" height="60" as="geometry" />
        </mxCell>
        <mxCell id="cSg_9xb-fCkNPHm3gPU1-5" value="" style="edgeStyle=orthogonalEdgeStyle;rounded=0;orthogonalLoop=1;jettySize=auto;html=1;" parent="RYURyzUsfLm2JB_ogs4t-1" source="cSg_9xb-fCkNPHm3gPU1-0" target="cSg_9xb-fCkNPHm3gPU1-1" edge="1">
          <mxGeometry relative="1" as="geometry" />
        </mxCell>
        <mxCell id="cSg_9xb-fCkNPHm3gPU1-0" value="讲师详情" style="rounded=0;whiteSpace=wrap;html=1;" parent="RYURyzUsfLm2JB_ogs4t-1" vertex="1">
          <mxGeometry x="200" y="230" width="120" height="60" as="geometry" />
        </mxCell>
        <mxCell id="cSg_9xb-fCkNPHm3gPU1-1" value="结束" style="rounded=1;whiteSpace=wrap;html=1;" parent="RYURyzUsfLm2JB_ogs4t-1" vertex="1">
          <mxGeometry x="20" y="230" width="120" height="60" as="geometry" />
        </mxCell>
        <mxCell id="cSg_9xb-fCkNPHm3gPU1-4" value="是" style="edgeStyle=orthogonalEdgeStyle;rounded=0;orthogonalLoop=1;jettySize=auto;html=1;" parent="RYURyzUsfLm2JB_ogs4t-1" source="cSg_9xb-fCkNPHm3gPU1-2" target="cSg_9xb-fCkNPHm3gPU1-0" edge="1">
          <mxGeometry relative="1" as="geometry" />
        </mxCell>
        <mxCell id="cSg_9xb-fCkNPHm3gPU1-6" value="否" style="edgeStyle=orthogonalEdgeStyle;rounded=0;orthogonalLoop=1;jettySize=auto;html=1;entryX=0.45;entryY=1;entryDx=0;entryDy=0;entryPerimeter=0;" parent="RYURyzUsfLm2JB_ogs4t-1" source="cSg_9xb-fCkNPHm3gPU1-2" target="KsVBIH08QNQ1NyHOmJTG-1" edge="1">
          <mxGeometry relative="1" as="geometry">
            <Array as="points">
              <mxPoint x="440" y="200" />
              <mxPoint x="264" y="200" />
            </Array>
          </mxGeometry>
        </mxCell>
        <mxCell id="cSg_9xb-fCkNPHm3gPU1-2" value="选择讲师" style="rhombus;whiteSpace=wrap;html=1;rounded=0;" parent="RYURyzUsfLm2JB_ogs4t-1" vertex="1">
          <mxGeometry x="400" y="220" width="80" height="80" as="geometry" />
        </mxCell>
      </root>
    </mxGraphModel>
  </diagram>
  <diagram id="uKfdhB-ppzgOLi92Zt6-" name="注册 登录">
    <mxGraphModel dx="1021" dy="567" grid="0" gridSize="10" guides="1" tooltips="1" connect="1" arrows="1" fold="1" page="1" pageScale="1" pageWidth="827" pageHeight="1169" math="0" shadow="0">
      <root>
        <mxCell id="8eO0yJ7IpjJWuwoVfzwm-0" />
        <mxCell id="8eO0yJ7IpjJWuwoVfzwm-1" parent="8eO0yJ7IpjJWuwoVfzwm-0" />
        <mxCell id="iymWX8VEQuK5iPDOn8wb-1" value="" style="edgeStyle=orthogonalEdgeStyle;rounded=0;orthogonalLoop=1;jettySize=auto;html=1;" parent="8eO0yJ7IpjJWuwoVfzwm-1" source="N4hTmCfnPL_Nd5vb7oD9-2" target="iymWX8VEQuK5iPDOn8wb-0" edge="1">
          <mxGeometry relative="1" as="geometry" />
        </mxCell>
        <mxCell id="N4hTmCfnPL_Nd5vb7oD9-2" value="开始" style="rounded=1;whiteSpace=wrap;html=1;" parent="8eO0yJ7IpjJWuwoVfzwm-1" vertex="1">
          <mxGeometry x="40" y="240" width="120" height="60" as="geometry" />
        </mxCell>
        <mxCell id="N4hTmCfnPL_Nd5vb7oD9-6" value="" style="edgeStyle=orthogonalEdgeStyle;rounded=0;orthogonalLoop=1;jettySize=auto;html=1;" parent="8eO0yJ7IpjJWuwoVfzwm-1" source="N4hTmCfnPL_Nd5vb7oD9-4" target="N4hTmCfnPL_Nd5vb7oD9-5" edge="1">
          <mxGeometry relative="1" as="geometry" />
        </mxCell>
        <mxCell id="N4hTmCfnPL_Nd5vb7oD9-8" value="否" style="edgeLabel;html=1;align=center;verticalAlign=middle;resizable=0;points=[];" parent="N4hTmCfnPL_Nd5vb7oD9-6" vertex="1" connectable="0">
          <mxGeometry x="-0.2444" y="-2" relative="1" as="geometry">
            <mxPoint as="offset" />
          </mxGeometry>
        </mxCell>
        <mxCell id="N4hTmCfnPL_Nd5vb7oD9-12" value="是" style="edgeStyle=orthogonalEdgeStyle;rounded=0;orthogonalLoop=1;jettySize=auto;html=1;" parent="8eO0yJ7IpjJWuwoVfzwm-1" source="N4hTmCfnPL_Nd5vb7oD9-4" target="N4hTmCfnPL_Nd5vb7oD9-11" edge="1">
          <mxGeometry relative="1" as="geometry" />
        </mxCell>
        <mxCell id="N4hTmCfnPL_Nd5vb7oD9-4" value="手机登录" style="rhombus;whiteSpace=wrap;html=1;" parent="8eO0yJ7IpjJWuwoVfzwm-1" vertex="1">
          <mxGeometry x="220" y="100" width="80" height="80" as="geometry" />
        </mxCell>
        <mxCell id="N4hTmCfnPL_Nd5vb7oD9-26" style="edgeStyle=orthogonalEdgeStyle;rounded=0;orthogonalLoop=1;jettySize=auto;html=1;" parent="8eO0yJ7IpjJWuwoVfzwm-1" source="N4hTmCfnPL_Nd5vb7oD9-5" target="N4hTmCfnPL_Nd5vb7oD9-24" edge="1">
          <mxGeometry relative="1" as="geometry" />
        </mxCell>
        <mxCell id="N4hTmCfnPL_Nd5vb7oD9-5" value="微信" style="whiteSpace=wrap;html=1;" parent="8eO0yJ7IpjJWuwoVfzwm-1" vertex="1">
          <mxGeometry x="200" y="240" width="120" height="60" as="geometry" />
        </mxCell>
        <mxCell id="N4hTmCfnPL_Nd5vb7oD9-14" value="否" style="edgeStyle=orthogonalEdgeStyle;rounded=0;orthogonalLoop=1;jettySize=auto;html=1;" parent="8eO0yJ7IpjJWuwoVfzwm-1" source="N4hTmCfnPL_Nd5vb7oD9-11" target="N4hTmCfnPL_Nd5vb7oD9-13" edge="1">
          <mxGeometry relative="1" as="geometry" />
        </mxCell>
        <mxCell id="N4hTmCfnPL_Nd5vb7oD9-17" value="是" style="edgeStyle=orthogonalEdgeStyle;rounded=0;orthogonalLoop=1;jettySize=auto;html=1;" parent="8eO0yJ7IpjJWuwoVfzwm-1" source="N4hTmCfnPL_Nd5vb7oD9-11" target="N4hTmCfnPL_Nd5vb7oD9-16" edge="1">
          <mxGeometry relative="1" as="geometry" />
        </mxCell>
        <mxCell id="N4hTmCfnPL_Nd5vb7oD9-11" value="是否注册" style="rhombus;whiteSpace=wrap;html=1;" parent="8eO0yJ7IpjJWuwoVfzwm-1" vertex="1">
          <mxGeometry x="360" y="100" width="80" height="80" as="geometry" />
        </mxCell>
        <mxCell id="N4hTmCfnPL_Nd5vb7oD9-15" style="edgeStyle=orthogonalEdgeStyle;rounded=0;orthogonalLoop=1;jettySize=auto;html=1;entryX=0.5;entryY=0;entryDx=0;entryDy=0;" parent="8eO0yJ7IpjJWuwoVfzwm-1" source="N4hTmCfnPL_Nd5vb7oD9-13" target="N4hTmCfnPL_Nd5vb7oD9-4" edge="1">
          <mxGeometry relative="1" as="geometry" />
        </mxCell>
        <mxCell id="N4hTmCfnPL_Nd5vb7oD9-13" value="手机注册" style="whiteSpace=wrap;html=1;" parent="8eO0yJ7IpjJWuwoVfzwm-1" vertex="1">
          <mxGeometry x="340" y="10" width="120" height="40" as="geometry" />
        </mxCell>
        <mxCell id="N4hTmCfnPL_Nd5vb7oD9-19" value="" style="edgeStyle=orthogonalEdgeStyle;rounded=0;orthogonalLoop=1;jettySize=auto;html=1;" parent="8eO0yJ7IpjJWuwoVfzwm-1" source="N4hTmCfnPL_Nd5vb7oD9-16" target="N4hTmCfnPL_Nd5vb7oD9-18" edge="1">
          <mxGeometry relative="1" as="geometry" />
        </mxCell>
        <mxCell id="N4hTmCfnPL_Nd5vb7oD9-16" value="填写登录信息" style="whiteSpace=wrap;html=1;" parent="8eO0yJ7IpjJWuwoVfzwm-1" vertex="1">
          <mxGeometry x="340" y="240" width="120" height="60" as="geometry" />
        </mxCell>
        <mxCell id="N4hTmCfnPL_Nd5vb7oD9-21" value="否" style="edgeStyle=orthogonalEdgeStyle;rounded=0;orthogonalLoop=1;jettySize=auto;html=1;" parent="8eO0yJ7IpjJWuwoVfzwm-1" source="N4hTmCfnPL_Nd5vb7oD9-18" target="N4hTmCfnPL_Nd5vb7oD9-20" edge="1">
          <mxGeometry relative="1" as="geometry" />
        </mxCell>
        <mxCell id="N4hTmCfnPL_Nd5vb7oD9-27" value="是" style="edgeStyle=orthogonalEdgeStyle;rounded=0;orthogonalLoop=1;jettySize=auto;html=1;entryX=1;entryY=0.5;entryDx=0;entryDy=0;" parent="8eO0yJ7IpjJWuwoVfzwm-1" source="N4hTmCfnPL_Nd5vb7oD9-18" target="N4hTmCfnPL_Nd5vb7oD9-16" edge="1">
          <mxGeometry relative="1" as="geometry">
            <mxPoint x="500" y="270" as="targetPoint" />
            <Array as="points">
              <mxPoint x="480" y="370" />
              <mxPoint x="480" y="270" />
            </Array>
          </mxGeometry>
        </mxCell>
        <mxCell id="N4hTmCfnPL_Nd5vb7oD9-18" value="手机号有误" style="rhombus;whiteSpace=wrap;html=1;" parent="8eO0yJ7IpjJWuwoVfzwm-1" vertex="1">
          <mxGeometry x="360" y="330" width="80" height="80" as="geometry" />
        </mxCell>
        <mxCell id="N4hTmCfnPL_Nd5vb7oD9-25" value="否" style="edgeStyle=orthogonalEdgeStyle;rounded=0;orthogonalLoop=1;jettySize=auto;html=1;" parent="8eO0yJ7IpjJWuwoVfzwm-1" source="N4hTmCfnPL_Nd5vb7oD9-20" target="N4hTmCfnPL_Nd5vb7oD9-24" edge="1">
          <mxGeometry relative="1" as="geometry" />
        </mxCell>
        <mxCell id="N4hTmCfnPL_Nd5vb7oD9-28" style="edgeStyle=orthogonalEdgeStyle;rounded=0;orthogonalLoop=1;jettySize=auto;html=1;" parent="8eO0yJ7IpjJWuwoVfzwm-1" source="N4hTmCfnPL_Nd5vb7oD9-20" edge="1">
          <mxGeometry relative="1" as="geometry">
            <mxPoint x="480" y="370" as="targetPoint" />
          </mxGeometry>
        </mxCell>
        <mxCell id="N4hTmCfnPL_Nd5vb7oD9-29" value="是" style="edgeLabel;html=1;align=center;verticalAlign=middle;resizable=0;points=[];" parent="N4hTmCfnPL_Nd5vb7oD9-28" vertex="1" connectable="0">
          <mxGeometry x="-0.16" relative="1" as="geometry">
            <mxPoint as="offset" />
          </mxGeometry>
        </mxCell>
        <mxCell id="N4hTmCfnPL_Nd5vb7oD9-20" value="密码有误" style="rhombus;whiteSpace=wrap;html=1;" parent="8eO0yJ7IpjJWuwoVfzwm-1" vertex="1">
          <mxGeometry x="360" y="440" width="80" height="80" as="geometry" />
        </mxCell>
        <mxCell id="N4hTmCfnPL_Nd5vb7oD9-24" value="结束" style="rounded=1;whiteSpace=wrap;html=1;" parent="8eO0yJ7IpjJWuwoVfzwm-1" vertex="1">
          <mxGeometry x="200" y="450" width="120" height="60" as="geometry" />
        </mxCell>
        <mxCell id="iymWX8VEQuK5iPDOn8wb-2" value="" style="edgeStyle=orthogonalEdgeStyle;rounded=0;orthogonalLoop=1;jettySize=auto;html=1;" parent="8eO0yJ7IpjJWuwoVfzwm-1" source="iymWX8VEQuK5iPDOn8wb-0" target="N4hTmCfnPL_Nd5vb7oD9-4" edge="1">
          <mxGeometry relative="1" as="geometry" />
        </mxCell>
        <mxCell id="iymWX8VEQuK5iPDOn8wb-0" value="注册登录页面" style="rounded=0;whiteSpace=wrap;html=1;" parent="8eO0yJ7IpjJWuwoVfzwm-1" vertex="1">
          <mxGeometry x="40" y="110" width="120" height="60" as="geometry" />
        </mxCell>
      </root>
    </mxGraphModel>
  </diagram>
  <diagram id="-VE83JN1E9pnS8LR2xOb" name="讲师详情">
    <mxGraphModel dx="1695" dy="426" grid="0" gridSize="10" guides="1" tooltips="1" connect="1" arrows="1" fold="1" page="1" pageScale="1" pageWidth="827" pageHeight="1169" math="0" shadow="0">
      <root>
        <mxCell id="Jj-fmwCspITYJ1GHxdbm-0" />
        <mxCell id="Jj-fmwCspITYJ1GHxdbm-1" parent="Jj-fmwCspITYJ1GHxdbm-0" />
        <mxCell id="6T3OYK1OkhTEHAxv9geF-0" value="" style="edgeStyle=orthogonalEdgeStyle;rounded=0;orthogonalLoop=1;jettySize=auto;html=1;" parent="Jj-fmwCspITYJ1GHxdbm-1" source="Jj-fmwCspITYJ1GHxdbm-2" target="9EldgRSQ_j8Wmf-JkiFy-0" edge="1">
          <mxGeometry relative="1" as="geometry" />
        </mxCell>
        <mxCell id="Jj-fmwCspITYJ1GHxdbm-2" value="开始" style="rounded=1;whiteSpace=wrap;html=1;" parent="Jj-fmwCspITYJ1GHxdbm-1" vertex="1">
          <mxGeometry x="-636" y="147" width="120" height="60" as="geometry" />
        </mxCell>
        <mxCell id="Jj-fmwCspITYJ1GHxdbm-6" value="结束" style="rounded=1;whiteSpace=wrap;html=1;" parent="Jj-fmwCspITYJ1GHxdbm-1" vertex="1">
          <mxGeometry x="-456" y="327" width="120" height="60" as="geometry" />
        </mxCell>
        <mxCell id="uJKg4FpdC9hoUAb7dcHC-3" value="" style="edgeStyle=orthogonalEdgeStyle;rounded=0;orthogonalLoop=1;jettySize=auto;html=1;" parent="Jj-fmwCspITYJ1GHxdbm-1" source="uJKg4FpdC9hoUAb7dcHC-0" target="uJKg4FpdC9hoUAb7dcHC-2" edge="1">
          <mxGeometry relative="1" as="geometry" />
        </mxCell>
        <mxCell id="uJKg4FpdC9hoUAb7dcHC-6" value="是" style="edgeLabel;html=1;align=center;verticalAlign=middle;resizable=0;points=[];" parent="uJKg4FpdC9hoUAb7dcHC-3" vertex="1" connectable="0">
          <mxGeometry x="-0.28" y="-3" relative="1" as="geometry">
            <mxPoint as="offset" />
          </mxGeometry>
        </mxCell>
        <mxCell id="uJKg4FpdC9hoUAb7dcHC-4" style="edgeStyle=orthogonalEdgeStyle;rounded=0;orthogonalLoop=1;jettySize=auto;html=1;" parent="Jj-fmwCspITYJ1GHxdbm-1" source="uJKg4FpdC9hoUAb7dcHC-0" target="Jj-fmwCspITYJ1GHxdbm-6" edge="1">
          <mxGeometry relative="1" as="geometry">
            <Array as="points">
              <mxPoint x="-216" y="357" />
            </Array>
          </mxGeometry>
        </mxCell>
        <mxCell id="uJKg4FpdC9hoUAb7dcHC-5" value="否" style="edgeLabel;html=1;align=center;verticalAlign=middle;resizable=0;points=[];" parent="uJKg4FpdC9hoUAb7dcHC-4" vertex="1" connectable="0">
          <mxGeometry x="-0.6667" y="2" relative="1" as="geometry">
            <mxPoint as="offset" />
          </mxGeometry>
        </mxCell>
        <mxCell id="uJKg4FpdC9hoUAb7dcHC-0" value="选择主讲课程" style="rhombus;whiteSpace=wrap;html=1;" parent="Jj-fmwCspITYJ1GHxdbm-1" vertex="1">
          <mxGeometry x="-256" y="137" width="80" height="80" as="geometry" />
        </mxCell>
        <mxCell id="uJKg4FpdC9hoUAb7dcHC-7" style="edgeStyle=orthogonalEdgeStyle;rounded=0;orthogonalLoop=1;jettySize=auto;html=1;" parent="Jj-fmwCspITYJ1GHxdbm-1" source="uJKg4FpdC9hoUAb7dcHC-2" edge="1">
          <mxGeometry relative="1" as="geometry">
            <mxPoint x="-216" y="357" as="targetPoint" />
          </mxGeometry>
        </mxCell>
        <mxCell id="uJKg4FpdC9hoUAb7dcHC-2" value="课程详情" style="whiteSpace=wrap;html=1;" parent="Jj-fmwCspITYJ1GHxdbm-1" vertex="1">
          <mxGeometry x="-136" y="327" width="120" height="60" as="geometry" />
        </mxCell>
        <mxCell id="6T3OYK1OkhTEHAxv9geF-1" value="" style="edgeStyle=orthogonalEdgeStyle;rounded=0;orthogonalLoop=1;jettySize=auto;html=1;" parent="Jj-fmwCspITYJ1GHxdbm-1" source="9EldgRSQ_j8Wmf-JkiFy-0" target="uJKg4FpdC9hoUAb7dcHC-0" edge="1">
          <mxGeometry relative="1" as="geometry" />
        </mxCell>
        <mxCell id="9EldgRSQ_j8Wmf-JkiFy-0" value="讲师详情" style="rounded=0;whiteSpace=wrap;html=1;" parent="Jj-fmwCspITYJ1GHxdbm-1" vertex="1">
          <mxGeometry x="-456" y="147" width="120" height="60" as="geometry" />
        </mxCell>
      </root>
    </mxGraphModel>
  </diagram>
  <diagram id="k_lhRhxCmC_rFuB4rXsM" name="课程详情">
    <mxGraphModel dx="1021" dy="1736" grid="0" gridSize="10" guides="1" tooltips="1" connect="1" arrows="1" fold="1" page="1" pageScale="1" pageWidth="827" pageHeight="1169" math="0" shadow="0">
      <root>
        <mxCell id="q580-TQVkMoyCNeISTnV-0" />
        <mxCell id="q580-TQVkMoyCNeISTnV-1" parent="q580-TQVkMoyCNeISTnV-0" />
        <mxCell id="HWuHWR-WSxDNGcm_jEvQ-12" value="" style="edgeStyle=orthogonalEdgeStyle;rounded=0;orthogonalLoop=1;jettySize=auto;html=1;" parent="q580-TQVkMoyCNeISTnV-1" source="q580-TQVkMoyCNeISTnV-2" target="HWuHWR-WSxDNGcm_jEvQ-11" edge="1">
          <mxGeometry relative="1" as="geometry" />
        </mxCell>
        <mxCell id="q580-TQVkMoyCNeISTnV-2" value="课程详情" style="rounded=0;whiteSpace=wrap;html=1;" parent="q580-TQVkMoyCNeISTnV-1" vertex="1">
          <mxGeometry x="190" y="90" width="120" height="60" as="geometry" />
        </mxCell>
        <mxCell id="HWuHWR-WSxDNGcm_jEvQ-3" value="是" style="edgeStyle=orthogonalEdgeStyle;rounded=0;orthogonalLoop=1;jettySize=auto;html=1;" parent="q580-TQVkMoyCNeISTnV-1" source="q580-TQVkMoyCNeISTnV-3" target="HWuHWR-WSxDNGcm_jEvQ-2" edge="1">
          <mxGeometry relative="1" as="geometry" />
        </mxCell>
        <mxCell id="HWuHWR-WSxDNGcm_jEvQ-5" value="否" style="edgeStyle=orthogonalEdgeStyle;rounded=0;orthogonalLoop=1;jettySize=auto;html=1;" parent="q580-TQVkMoyCNeISTnV-1" source="q580-TQVkMoyCNeISTnV-3" target="HWuHWR-WSxDNGcm_jEvQ-4" edge="1">
          <mxGeometry relative="1" as="geometry" />
        </mxCell>
        <mxCell id="q580-TQVkMoyCNeISTnV-3" value="收藏课程" style="rhombus;whiteSpace=wrap;html=1;" parent="q580-TQVkMoyCNeISTnV-1" vertex="1">
          <mxGeometry x="490" y="80" width="80" height="80" as="geometry" />
        </mxCell>
        <mxCell id="HWuHWR-WSxDNGcm_jEvQ-0" value="" style="edgeStyle=orthogonalEdgeStyle;rounded=0;orthogonalLoop=1;jettySize=auto;html=1;" parent="q580-TQVkMoyCNeISTnV-1" source="q580-TQVkMoyCNeISTnV-4" target="q580-TQVkMoyCNeISTnV-2" edge="1">
          <mxGeometry relative="1" as="geometry" />
        </mxCell>
        <mxCell id="q580-TQVkMoyCNeISTnV-4" value="开始" style="rounded=1;whiteSpace=wrap;html=1;" parent="q580-TQVkMoyCNeISTnV-1" vertex="1">
          <mxGeometry x="30" y="90" width="120" height="60" as="geometry" />
        </mxCell>
        <mxCell id="HWuHWR-WSxDNGcm_jEvQ-19" style="edgeStyle=orthogonalEdgeStyle;rounded=0;orthogonalLoop=1;jettySize=auto;html=1;entryX=1;entryY=0.5;entryDx=0;entryDy=0;" parent="q580-TQVkMoyCNeISTnV-1" source="HWuHWR-WSxDNGcm_jEvQ-2" target="HWuHWR-WSxDNGcm_jEvQ-6" edge="1">
          <mxGeometry relative="1" as="geometry">
            <mxPoint x="620" y="340" as="targetPoint" />
            <Array as="points">
              <mxPoint x="610" y="17" />
              <mxPoint x="610" y="380" />
            </Array>
          </mxGeometry>
        </mxCell>
        <mxCell id="HWuHWR-WSxDNGcm_jEvQ-2" value="收藏成功" style="whiteSpace=wrap;html=1;" parent="q580-TQVkMoyCNeISTnV-1" vertex="1">
          <mxGeometry x="470" y="-13" width="120" height="60" as="geometry" />
        </mxCell>
        <mxCell id="HWuHWR-WSxDNGcm_jEvQ-7" value="" style="edgeStyle=orthogonalEdgeStyle;rounded=0;orthogonalLoop=1;jettySize=auto;html=1;" parent="q580-TQVkMoyCNeISTnV-1" source="HWuHWR-WSxDNGcm_jEvQ-4" target="HWuHWR-WSxDNGcm_jEvQ-6" edge="1">
          <mxGeometry relative="1" as="geometry" />
        </mxCell>
        <mxCell id="HWuHWR-WSxDNGcm_jEvQ-4" value="取消收藏" style="whiteSpace=wrap;html=1;" parent="q580-TQVkMoyCNeISTnV-1" vertex="1">
          <mxGeometry x="470" y="200" width="120" height="60" as="geometry" />
        </mxCell>
        <mxCell id="HWuHWR-WSxDNGcm_jEvQ-23" value="是" style="edgeStyle=orthogonalEdgeStyle;rounded=0;orthogonalLoop=1;jettySize=auto;html=1;" parent="q580-TQVkMoyCNeISTnV-1" source="HWuHWR-WSxDNGcm_jEvQ-6" target="HWuHWR-WSxDNGcm_jEvQ-22" edge="1">
          <mxGeometry relative="1" as="geometry" />
        </mxCell>
        <mxCell id="HWuHWR-WSxDNGcm_jEvQ-37" value="否" style="edgeStyle=orthogonalEdgeStyle;rounded=0;orthogonalLoop=1;jettySize=auto;html=1;" parent="q580-TQVkMoyCNeISTnV-1" source="HWuHWR-WSxDNGcm_jEvQ-6" target="HWuHWR-WSxDNGcm_jEvQ-36" edge="1">
          <mxGeometry relative="1" as="geometry" />
        </mxCell>
        <mxCell id="HWuHWR-WSxDNGcm_jEvQ-6" value="评论课程" style="rhombus;whiteSpace=wrap;html=1;" parent="q580-TQVkMoyCNeISTnV-1" vertex="1">
          <mxGeometry x="490" y="340" width="80" height="80" as="geometry" />
        </mxCell>
        <mxCell id="HWuHWR-WSxDNGcm_jEvQ-13" value="否" style="edgeStyle=orthogonalEdgeStyle;rounded=0;orthogonalLoop=1;jettySize=auto;html=1;" parent="q580-TQVkMoyCNeISTnV-1" source="HWuHWR-WSxDNGcm_jEvQ-11" target="q580-TQVkMoyCNeISTnV-3" edge="1">
          <mxGeometry relative="1" as="geometry" />
        </mxCell>
        <mxCell id="HWuHWR-WSxDNGcm_jEvQ-15" value="是" style="edgeStyle=orthogonalEdgeStyle;rounded=0;orthogonalLoop=1;jettySize=auto;html=1;" parent="q580-TQVkMoyCNeISTnV-1" source="HWuHWR-WSxDNGcm_jEvQ-11" target="HWuHWR-WSxDNGcm_jEvQ-14" edge="1">
          <mxGeometry relative="1" as="geometry" />
        </mxCell>
        <mxCell id="HWuHWR-WSxDNGcm_jEvQ-11" value="购买课程" style="rhombus;whiteSpace=wrap;html=1;rounded=0;" parent="q580-TQVkMoyCNeISTnV-1" vertex="1">
          <mxGeometry x="360" y="80" width="80" height="80" as="geometry" />
        </mxCell>
        <mxCell id="HWuHWR-WSxDNGcm_jEvQ-18" style="edgeStyle=orthogonalEdgeStyle;rounded=0;orthogonalLoop=1;jettySize=auto;html=1;entryX=0;entryY=0.5;entryDx=0;entryDy=0;entryPerimeter=0;" parent="q580-TQVkMoyCNeISTnV-1" source="HWuHWR-WSxDNGcm_jEvQ-14" target="HWuHWR-WSxDNGcm_jEvQ-17" edge="1">
          <mxGeometry relative="1" as="geometry">
            <Array as="points">
              <mxPoint x="20" y="16" />
              <mxPoint x="20" y="280" />
            </Array>
          </mxGeometry>
        </mxCell>
        <mxCell id="HWuHWR-WSxDNGcm_jEvQ-14" value="订单详情页面" style="whiteSpace=wrap;html=1;rounded=0;" parent="q580-TQVkMoyCNeISTnV-1" vertex="1">
          <mxGeometry x="340" y="-14" width="120" height="60" as="geometry" />
        </mxCell>
        <mxCell id="HWuHWR-WSxDNGcm_jEvQ-17" value="结束" style="rounded=1;whiteSpace=wrap;html=1;" parent="q580-TQVkMoyCNeISTnV-1" vertex="1">
          <mxGeometry x="35" y="250" width="120" height="60" as="geometry" />
        </mxCell>
        <mxCell id="HWuHWR-WSxDNGcm_jEvQ-25" value="否" style="edgeStyle=orthogonalEdgeStyle;rounded=0;orthogonalLoop=1;jettySize=auto;html=1;" parent="q580-TQVkMoyCNeISTnV-1" source="HWuHWR-WSxDNGcm_jEvQ-22" target="HWuHWR-WSxDNGcm_jEvQ-24" edge="1">
          <mxGeometry relative="1" as="geometry" />
        </mxCell>
        <mxCell id="HWuHWR-WSxDNGcm_jEvQ-29" value="是" style="edgeStyle=orthogonalEdgeStyle;rounded=0;orthogonalLoop=1;jettySize=auto;html=1;" parent="q580-TQVkMoyCNeISTnV-1" source="HWuHWR-WSxDNGcm_jEvQ-22" target="HWuHWR-WSxDNGcm_jEvQ-28" edge="1">
          <mxGeometry relative="1" as="geometry" />
        </mxCell>
        <mxCell id="HWuHWR-WSxDNGcm_jEvQ-22" value="是否登录" style="rhombus;whiteSpace=wrap;html=1;" parent="q580-TQVkMoyCNeISTnV-1" vertex="1">
          <mxGeometry x="360" y="340" width="80" height="80" as="geometry" />
        </mxCell>
        <mxCell id="HWuHWR-WSxDNGcm_jEvQ-27" value="" style="edgeStyle=orthogonalEdgeStyle;rounded=0;orthogonalLoop=1;jettySize=auto;html=1;" parent="q580-TQVkMoyCNeISTnV-1" source="HWuHWR-WSxDNGcm_jEvQ-24" target="HWuHWR-WSxDNGcm_jEvQ-26" edge="1">
          <mxGeometry relative="1" as="geometry" />
        </mxCell>
        <mxCell id="HWuHWR-WSxDNGcm_jEvQ-24" value="未登录" style="whiteSpace=wrap;html=1;" parent="q580-TQVkMoyCNeISTnV-1" vertex="1">
          <mxGeometry x="340" y="450" width="120" height="60" as="geometry" />
        </mxCell>
        <mxCell id="HWuHWR-WSxDNGcm_jEvQ-30" style="edgeStyle=orthogonalEdgeStyle;rounded=0;orthogonalLoop=1;jettySize=auto;html=1;entryX=0.45;entryY=1.033;entryDx=0;entryDy=0;entryPerimeter=0;" parent="q580-TQVkMoyCNeISTnV-1" source="HWuHWR-WSxDNGcm_jEvQ-26" target="HWuHWR-WSxDNGcm_jEvQ-17" edge="1">
          <mxGeometry relative="1" as="geometry" />
        </mxCell>
        <mxCell id="HWuHWR-WSxDNGcm_jEvQ-26" value="注册登录页面" style="whiteSpace=wrap;html=1;" parent="q580-TQVkMoyCNeISTnV-1" vertex="1">
          <mxGeometry x="180" y="450" width="120" height="60" as="geometry" />
        </mxCell>
        <mxCell id="dmJgmgsfOOX2trIGR0hY-9" style="edgeStyle=orthogonalEdgeStyle;rounded=0;orthogonalLoop=1;jettySize=auto;html=1;exitX=0.5;exitY=0;exitDx=0;exitDy=0;entryX=0.5;entryY=1;entryDx=0;entryDy=0;" parent="q580-TQVkMoyCNeISTnV-1" source="HWuHWR-WSxDNGcm_jEvQ-28" target="HWuHWR-WSxDNGcm_jEvQ-38" edge="1">
          <mxGeometry relative="1" as="geometry">
            <Array as="points">
              <mxPoint x="240" y="330" />
              <mxPoint x="420" y="330" />
            </Array>
          </mxGeometry>
        </mxCell>
        <mxCell id="HWuHWR-WSxDNGcm_jEvQ-28" value="评论成功" style="whiteSpace=wrap;html=1;" parent="q580-TQVkMoyCNeISTnV-1" vertex="1">
          <mxGeometry x="180" y="350" width="120" height="60" as="geometry" />
        </mxCell>
        <mxCell id="HWuHWR-WSxDNGcm_jEvQ-44" style="edgeStyle=orthogonalEdgeStyle;rounded=0;orthogonalLoop=1;jettySize=auto;html=1;" parent="q580-TQVkMoyCNeISTnV-1" source="HWuHWR-WSxDNGcm_jEvQ-36" edge="1">
          <mxGeometry relative="1" as="geometry">
            <mxPoint x="240" y="330" as="targetPoint" />
            <Array as="points">
              <mxPoint x="530" y="524" />
              <mxPoint x="140" y="524" />
              <mxPoint x="140" y="330" />
            </Array>
          </mxGeometry>
        </mxCell>
        <mxCell id="HWuHWR-WSxDNGcm_jEvQ-36" value="取消评论" style="whiteSpace=wrap;html=1;" parent="q580-TQVkMoyCNeISTnV-1" vertex="1">
          <mxGeometry x="470" y="450" width="120" height="60" as="geometry" />
        </mxCell>
        <mxCell id="HWuHWR-WSxDNGcm_jEvQ-40" value="是" style="edgeStyle=orthogonalEdgeStyle;rounded=0;orthogonalLoop=1;jettySize=auto;html=1;" parent="q580-TQVkMoyCNeISTnV-1" source="HWuHWR-WSxDNGcm_jEvQ-38" target="HWuHWR-WSxDNGcm_jEvQ-39" edge="1">
          <mxGeometry relative="1" as="geometry" />
        </mxCell>
        <mxCell id="HWuHWR-WSxDNGcm_jEvQ-42" value="否" style="edgeStyle=orthogonalEdgeStyle;rounded=0;orthogonalLoop=1;jettySize=auto;html=1;exitX=0.5;exitY=0;exitDx=0;exitDy=0;entryX=1;entryY=0.5;entryDx=0;entryDy=0;" parent="q580-TQVkMoyCNeISTnV-1" source="HWuHWR-WSxDNGcm_jEvQ-38" target="dmJgmgsfOOX2trIGR0hY-3" edge="1">
          <mxGeometry relative="1" as="geometry">
            <mxPoint x="405" y="220" as="targetPoint" />
            <Array as="points">
              <mxPoint x="420" y="200" />
            </Array>
          </mxGeometry>
        </mxCell>
        <mxCell id="HWuHWR-WSxDNGcm_jEvQ-38" value="观看课程" style="rhombus;whiteSpace=wrap;html=1;" parent="q580-TQVkMoyCNeISTnV-1" vertex="1">
          <mxGeometry x="380" y="240" width="80" height="80" as="geometry" />
        </mxCell>
        <mxCell id="HWuHWR-WSxDNGcm_jEvQ-41" value="" style="edgeStyle=orthogonalEdgeStyle;rounded=0;orthogonalLoop=1;jettySize=auto;html=1;" parent="q580-TQVkMoyCNeISTnV-1" source="HWuHWR-WSxDNGcm_jEvQ-39" target="HWuHWR-WSxDNGcm_jEvQ-17" edge="1">
          <mxGeometry relative="1" as="geometry" />
        </mxCell>
        <mxCell id="HWuHWR-WSxDNGcm_jEvQ-39" value="跳转小节视频" style="whiteSpace=wrap;html=1;" parent="q580-TQVkMoyCNeISTnV-1" vertex="1">
          <mxGeometry x="195" y="250" width="120" height="60" as="geometry" />
        </mxCell>
        <mxCell id="dmJgmgsfOOX2trIGR0hY-5" value="是" style="edgeStyle=orthogonalEdgeStyle;rounded=0;orthogonalLoop=1;jettySize=auto;html=1;" parent="q580-TQVkMoyCNeISTnV-1" source="dmJgmgsfOOX2trIGR0hY-3" target="dmJgmgsfOOX2trIGR0hY-4" edge="1">
          <mxGeometry relative="1" as="geometry" />
        </mxCell>
        <mxCell id="dmJgmgsfOOX2trIGR0hY-7" value="否" style="edgeStyle=orthogonalEdgeStyle;rounded=0;orthogonalLoop=1;jettySize=auto;html=1;entryX=0.5;entryY=1;entryDx=0;entryDy=0;exitX=0.5;exitY=0;exitDx=0;exitDy=0;" parent="q580-TQVkMoyCNeISTnV-1" source="dmJgmgsfOOX2trIGR0hY-3" target="q580-TQVkMoyCNeISTnV-2" edge="1">
          <mxGeometry relative="1" as="geometry">
            <Array as="points">
              <mxPoint x="250" y="160" />
            </Array>
          </mxGeometry>
        </mxCell>
        <mxCell id="dmJgmgsfOOX2trIGR0hY-3" value="相关课程" style="rhombus;whiteSpace=wrap;html=1;" parent="q580-TQVkMoyCNeISTnV-1" vertex="1">
          <mxGeometry x="310" y="160" width="80" height="80" as="geometry" />
        </mxCell>
        <mxCell id="dmJgmgsfOOX2trIGR0hY-6" style="edgeStyle=orthogonalEdgeStyle;rounded=0;orthogonalLoop=1;jettySize=auto;html=1;" parent="q580-TQVkMoyCNeISTnV-1" source="dmJgmgsfOOX2trIGR0hY-4" edge="1">
          <mxGeometry relative="1" as="geometry">
            <mxPoint x="90" y="250" as="targetPoint" />
          </mxGeometry>
        </mxCell>
        <mxCell id="dmJgmgsfOOX2trIGR0hY-4" value="跳转课程" style="whiteSpace=wrap;html=1;" parent="q580-TQVkMoyCNeISTnV-1" vertex="1">
          <mxGeometry x="130" y="170" width="120" height="60" as="geometry" />
        </mxCell>
      </root>
    </mxGraphModel>
  </diagram>
  <diagram id="dLgM1igjS1nhZ0G7z9gl" name="今日推荐">
    <mxGraphModel dx="868" dy="426" grid="0" gridSize="10" guides="1" tooltips="1" connect="1" arrows="1" fold="1" page="1" pageScale="1" pageWidth="827" pageHeight="1169" math="0" shadow="0">
      <root>
        <mxCell id="QG2JiZ_NUHyjrM9AuP7i-0" />
        <mxCell id="QG2JiZ_NUHyjrM9AuP7i-1" parent="QG2JiZ_NUHyjrM9AuP7i-0" />
        <mxCell id="QG2JiZ_NUHyjrM9AuP7i-4" value="" style="edgeStyle=orthogonalEdgeStyle;rounded=0;orthogonalLoop=1;jettySize=auto;html=1;" parent="QG2JiZ_NUHyjrM9AuP7i-1" source="QG2JiZ_NUHyjrM9AuP7i-2" target="QG2JiZ_NUHyjrM9AuP7i-3" edge="1">
          <mxGeometry relative="1" as="geometry" />
        </mxCell>
        <mxCell id="QG2JiZ_NUHyjrM9AuP7i-2" value="开始" style="rounded=1;whiteSpace=wrap;html=1;" parent="QG2JiZ_NUHyjrM9AuP7i-1" vertex="1">
          <mxGeometry x="80" y="160" width="120" height="60" as="geometry" />
        </mxCell>
        <mxCell id="MPo1_gR5JLo6UMfKzLai-1" value="" style="edgeStyle=orthogonalEdgeStyle;rounded=0;orthogonalLoop=1;jettySize=auto;html=1;" parent="QG2JiZ_NUHyjrM9AuP7i-1" source="QG2JiZ_NUHyjrM9AuP7i-3" target="MPo1_gR5JLo6UMfKzLai-0" edge="1">
          <mxGeometry relative="1" as="geometry" />
        </mxCell>
        <mxCell id="QG2JiZ_NUHyjrM9AuP7i-3" value="今日推荐" style="rounded=0;whiteSpace=wrap;html=1;" parent="QG2JiZ_NUHyjrM9AuP7i-1" vertex="1">
          <mxGeometry x="240" y="160" width="120" height="60" as="geometry" />
        </mxCell>
        <mxCell id="MPo1_gR5JLo6UMfKzLai-3" value="是" style="edgeStyle=orthogonalEdgeStyle;rounded=0;orthogonalLoop=1;jettySize=auto;html=1;" parent="QG2JiZ_NUHyjrM9AuP7i-1" source="MPo1_gR5JLo6UMfKzLai-0" target="MPo1_gR5JLo6UMfKzLai-2" edge="1">
          <mxGeometry relative="1" as="geometry" />
        </mxCell>
        <mxCell id="MPo1_gR5JLo6UMfKzLai-5" value="否" style="edgeStyle=orthogonalEdgeStyle;rounded=0;orthogonalLoop=1;jettySize=auto;html=1;" parent="QG2JiZ_NUHyjrM9AuP7i-1" source="MPo1_gR5JLo6UMfKzLai-0" target="MPo1_gR5JLo6UMfKzLai-4" edge="1">
          <mxGeometry relative="1" as="geometry" />
        </mxCell>
        <mxCell id="MPo1_gR5JLo6UMfKzLai-0" value="是否登录" style="rhombus;whiteSpace=wrap;html=1;rounded=0;" parent="QG2JiZ_NUHyjrM9AuP7i-1" vertex="1">
          <mxGeometry x="420" y="150" width="80" height="80" as="geometry" />
        </mxCell>
        <mxCell id="MPo1_gR5JLo6UMfKzLai-7" style="edgeStyle=orthogonalEdgeStyle;rounded=0;orthogonalLoop=1;jettySize=auto;html=1;entryX=1;entryY=0.5;entryDx=0;entryDy=0;" parent="QG2JiZ_NUHyjrM9AuP7i-1" source="MPo1_gR5JLo6UMfKzLai-2" target="MPo1_gR5JLo6UMfKzLai-6" edge="1">
          <mxGeometry relative="1" as="geometry" />
        </mxCell>
        <mxCell id="MPo1_gR5JLo6UMfKzLai-2" value="个性化推荐" style="whiteSpace=wrap;html=1;rounded=0;" parent="QG2JiZ_NUHyjrM9AuP7i-1" vertex="1">
          <mxGeometry x="400" y="270" width="120" height="60" as="geometry" />
        </mxCell>
        <mxCell id="MPo1_gR5JLo6UMfKzLai-8" style="edgeStyle=orthogonalEdgeStyle;rounded=0;orthogonalLoop=1;jettySize=auto;html=1;entryX=0.5;entryY=1;entryDx=0;entryDy=0;" parent="QG2JiZ_NUHyjrM9AuP7i-1" source="MPo1_gR5JLo6UMfKzLai-4" target="MPo1_gR5JLo6UMfKzLai-6" edge="1">
          <mxGeometry relative="1" as="geometry">
            <mxPoint x="560" y="480" as="targetPoint" />
            <Array as="points">
              <mxPoint x="590" y="350" />
              <mxPoint x="140" y="350" />
            </Array>
          </mxGeometry>
        </mxCell>
        <mxCell id="MPo1_gR5JLo6UMfKzLai-4" value="热门推荐" style="whiteSpace=wrap;html=1;rounded=0;" parent="QG2JiZ_NUHyjrM9AuP7i-1" vertex="1">
          <mxGeometry x="530" y="160" width="120" height="60" as="geometry" />
        </mxCell>
        <mxCell id="MPo1_gR5JLo6UMfKzLai-6" value="结束" style="rounded=1;whiteSpace=wrap;html=1;" parent="QG2JiZ_NUHyjrM9AuP7i-1" vertex="1">
          <mxGeometry x="80" y="270" width="120" height="60" as="geometry" />
        </mxCell>
      </root>
    </mxGraphModel>
  </diagram>
  <diagram id="htSfrb0jg8wCGYzl9COM" name="个人中心">
    <mxGraphModel dx="1695" dy="426" grid="0" gridSize="10" guides="1" tooltips="1" connect="1" arrows="1" fold="1" page="1" pageScale="1" pageWidth="827" pageHeight="1169" math="0" shadow="0">
      <root>
        <mxCell id="LKiKryuv8Th7NuNmgKkL-0" />
        <mxCell id="LKiKryuv8Th7NuNmgKkL-1" parent="LKiKryuv8Th7NuNmgKkL-0" />
        <mxCell id="LKiKryuv8Th7NuNmgKkL-3" value="开始" style="rounded=1;whiteSpace=wrap;html=1;" parent="LKiKryuv8Th7NuNmgKkL-1" vertex="1">
          <mxGeometry x="40" y="140" width="120" height="60" as="geometry" />
        </mxCell>
        <mxCell id="LKiKryuv8Th7NuNmgKkL-6" value="" style="edgeStyle=orthogonalEdgeStyle;rounded=0;orthogonalLoop=1;jettySize=auto;html=1;" parent="LKiKryuv8Th7NuNmgKkL-1" source="LKiKryuv8Th7NuNmgKkL-4" target="LKiKryuv8Th7NuNmgKkL-5" edge="1">
          <mxGeometry relative="1" as="geometry" />
        </mxCell>
        <mxCell id="LKiKryuv8Th7NuNmgKkL-4" value="&#xa;&#xa;&lt;span style=&quot;color: rgb(0, 0, 0); font-family: helvetica; font-size: 12px; font-style: normal; font-weight: 400; letter-spacing: normal; text-align: center; text-indent: 0px; text-transform: none; word-spacing: 0px; background-color: rgb(248, 249, 250); display: inline; float: none;&quot;&gt;个人中心&lt;/span&gt;&#xa;&#xa;" style="rounded=0;whiteSpace=wrap;html=1;" parent="LKiKryuv8Th7NuNmgKkL-1" vertex="1">
          <mxGeometry x="190" y="140" width="120" height="60" as="geometry" />
        </mxCell>
        <mxCell id="LKiKryuv8Th7NuNmgKkL-8" value="是" style="edgeStyle=orthogonalEdgeStyle;rounded=0;orthogonalLoop=1;jettySize=auto;html=1;" parent="LKiKryuv8Th7NuNmgKkL-1" source="LKiKryuv8Th7NuNmgKkL-5" target="LKiKryuv8Th7NuNmgKkL-7" edge="1">
          <mxGeometry relative="1" as="geometry" />
        </mxCell>
        <mxCell id="LKiKryuv8Th7NuNmgKkL-10" value="否" style="edgeStyle=orthogonalEdgeStyle;rounded=0;orthogonalLoop=1;jettySize=auto;html=1;" parent="LKiKryuv8Th7NuNmgKkL-1" source="LKiKryuv8Th7NuNmgKkL-5" target="LKiKryuv8Th7NuNmgKkL-9" edge="1">
          <mxGeometry relative="1" as="geometry" />
        </mxCell>
        <mxCell id="LKiKryuv8Th7NuNmgKkL-5" value="修改资料" style="rhombus;whiteSpace=wrap;html=1;rounded=0;" parent="LKiKryuv8Th7NuNmgKkL-1" vertex="1">
          <mxGeometry x="360" y="130" width="80" height="80" as="geometry" />
        </mxCell>
        <mxCell id="LKiKryuv8Th7NuNmgKkL-13" style="edgeStyle=orthogonalEdgeStyle;rounded=0;orthogonalLoop=1;jettySize=auto;html=1;" parent="LKiKryuv8Th7NuNmgKkL-1" source="LKiKryuv8Th7NuNmgKkL-7" edge="1">
          <mxGeometry relative="1" as="geometry">
            <mxPoint x="400" y="320" as="targetPoint" />
            <Array as="points">
              <mxPoint x="530" y="320" />
            </Array>
          </mxGeometry>
        </mxCell>
        <mxCell id="LKiKryuv8Th7NuNmgKkL-7" value="修改成功" style="whiteSpace=wrap;html=1;rounded=0;" parent="LKiKryuv8Th7NuNmgKkL-1" vertex="1">
          <mxGeometry x="470" y="140" width="120" height="60" as="geometry" />
        </mxCell>
        <mxCell id="LKiKryuv8Th7NuNmgKkL-12" value="" style="edgeStyle=orthogonalEdgeStyle;rounded=0;orthogonalLoop=1;jettySize=auto;html=1;" parent="LKiKryuv8Th7NuNmgKkL-1" source="LKiKryuv8Th7NuNmgKkL-9" target="LKiKryuv8Th7NuNmgKkL-11" edge="1">
          <mxGeometry relative="1" as="geometry" />
        </mxCell>
        <mxCell id="LKiKryuv8Th7NuNmgKkL-9" value="取消修改" style="whiteSpace=wrap;html=1;rounded=0;" parent="LKiKryuv8Th7NuNmgKkL-1" vertex="1">
          <mxGeometry x="340" y="240" width="120" height="60" as="geometry" />
        </mxCell>
        <mxCell id="LKiKryuv8Th7NuNmgKkL-15" value="是" style="edgeStyle=orthogonalEdgeStyle;rounded=0;orthogonalLoop=1;jettySize=auto;html=1;" parent="LKiKryuv8Th7NuNmgKkL-1" source="LKiKryuv8Th7NuNmgKkL-11" target="LKiKryuv8Th7NuNmgKkL-14" edge="1">
          <mxGeometry relative="1" as="geometry" />
        </mxCell>
        <mxCell id="LKiKryuv8Th7NuNmgKkL-17" value="否" style="edgeStyle=orthogonalEdgeStyle;rounded=0;orthogonalLoop=1;jettySize=auto;html=1;" parent="LKiKryuv8Th7NuNmgKkL-1" source="LKiKryuv8Th7NuNmgKkL-11" target="LKiKryuv8Th7NuNmgKkL-16" edge="1">
          <mxGeometry relative="1" as="geometry" />
        </mxCell>
        <mxCell id="LKiKryuv8Th7NuNmgKkL-11" value="修改密码" style="rhombus;whiteSpace=wrap;html=1;rounded=0;" parent="LKiKryuv8Th7NuNmgKkL-1" vertex="1">
          <mxGeometry x="360" y="340" width="80" height="80" as="geometry" />
        </mxCell>
        <mxCell id="LKiKryuv8Th7NuNmgKkL-45" style="edgeStyle=orthogonalEdgeStyle;rounded=0;orthogonalLoop=1;jettySize=auto;html=1;" parent="LKiKryuv8Th7NuNmgKkL-1" source="LKiKryuv8Th7NuNmgKkL-14" edge="1">
          <mxGeometry relative="1" as="geometry">
            <mxPoint x="320" y="480" as="targetPoint" />
            <Array as="points">
              <mxPoint x="530" y="520" />
              <mxPoint x="320" y="520" />
            </Array>
          </mxGeometry>
        </mxCell>
        <mxCell id="LKiKryuv8Th7NuNmgKkL-14" value="修改成功" style="whiteSpace=wrap;html=1;rounded=0;" parent="LKiKryuv8Th7NuNmgKkL-1" vertex="1">
          <mxGeometry x="470" y="350" width="120" height="60" as="geometry" />
        </mxCell>
        <mxCell id="LKiKryuv8Th7NuNmgKkL-19" value="" style="edgeStyle=orthogonalEdgeStyle;rounded=0;orthogonalLoop=1;jettySize=auto;html=1;" parent="LKiKryuv8Th7NuNmgKkL-1" source="LKiKryuv8Th7NuNmgKkL-16" target="LKiKryuv8Th7NuNmgKkL-18" edge="1">
          <mxGeometry relative="1" as="geometry" />
        </mxCell>
        <mxCell id="LKiKryuv8Th7NuNmgKkL-16" value="取消修改" style="whiteSpace=wrap;html=1;rounded=0;" parent="LKiKryuv8Th7NuNmgKkL-1" vertex="1">
          <mxGeometry x="340" y="450" width="120" height="60" as="geometry" />
        </mxCell>
        <mxCell id="LKiKryuv8Th7NuNmgKkL-21" value="否" style="edgeStyle=orthogonalEdgeStyle;rounded=0;orthogonalLoop=1;jettySize=auto;html=1;" parent="LKiKryuv8Th7NuNmgKkL-1" source="LKiKryuv8Th7NuNmgKkL-18" target="LKiKryuv8Th7NuNmgKkL-20" edge="1">
          <mxGeometry relative="1" as="geometry" />
        </mxCell>
        <mxCell id="LKiKryuv8Th7NuNmgKkL-23" value="是" style="edgeStyle=orthogonalEdgeStyle;rounded=0;orthogonalLoop=1;jettySize=auto;html=1;" parent="LKiKryuv8Th7NuNmgKkL-1" source="LKiKryuv8Th7NuNmgKkL-18" target="LKiKryuv8Th7NuNmgKkL-22" edge="1">
          <mxGeometry relative="1" as="geometry" />
        </mxCell>
        <mxCell id="LKiKryuv8Th7NuNmgKkL-18" value="删除订单" style="rhombus;whiteSpace=wrap;html=1;rounded=0;" parent="LKiKryuv8Th7NuNmgKkL-1" vertex="1">
          <mxGeometry x="210" y="440" width="80" height="80" as="geometry" />
        </mxCell>
        <mxCell id="LKiKryuv8Th7NuNmgKkL-25" value="" style="edgeStyle=orthogonalEdgeStyle;rounded=0;orthogonalLoop=1;jettySize=auto;html=1;" parent="LKiKryuv8Th7NuNmgKkL-1" source="LKiKryuv8Th7NuNmgKkL-20" target="LKiKryuv8Th7NuNmgKkL-24" edge="1">
          <mxGeometry relative="1" as="geometry" />
        </mxCell>
        <mxCell id="LKiKryuv8Th7NuNmgKkL-20" value="取消删除" style="whiteSpace=wrap;html=1;rounded=0;" parent="LKiKryuv8Th7NuNmgKkL-1" vertex="1">
          <mxGeometry x="190" y="350" width="120" height="60" as="geometry" />
        </mxCell>
        <mxCell id="LKiKryuv8Th7NuNmgKkL-26" value="" style="edgeStyle=orthogonalEdgeStyle;rounded=0;orthogonalLoop=1;jettySize=auto;html=1;" parent="LKiKryuv8Th7NuNmgKkL-1" source="LKiKryuv8Th7NuNmgKkL-22" target="LKiKryuv8Th7NuNmgKkL-24" edge="1">
          <mxGeometry relative="1" as="geometry" />
        </mxCell>
        <mxCell id="LKiKryuv8Th7NuNmgKkL-22" value="删除成功" style="whiteSpace=wrap;html=1;rounded=0;" parent="LKiKryuv8Th7NuNmgKkL-1" vertex="1">
          <mxGeometry x="40" y="450" width="120" height="60" as="geometry" />
        </mxCell>
        <mxCell id="LKiKryuv8Th7NuNmgKkL-28" value="是" style="edgeStyle=orthogonalEdgeStyle;rounded=0;orthogonalLoop=1;jettySize=auto;html=1;" parent="LKiKryuv8Th7NuNmgKkL-1" source="LKiKryuv8Th7NuNmgKkL-24" target="LKiKryuv8Th7NuNmgKkL-27" edge="1">
          <mxGeometry relative="1" as="geometry" />
        </mxCell>
        <mxCell id="LKiKryuv8Th7NuNmgKkL-30" value="否" style="edgeStyle=orthogonalEdgeStyle;rounded=0;orthogonalLoop=1;jettySize=auto;html=1;" parent="LKiKryuv8Th7NuNmgKkL-1" source="LKiKryuv8Th7NuNmgKkL-24" target="LKiKryuv8Th7NuNmgKkL-29" edge="1">
          <mxGeometry relative="1" as="geometry">
            <Array as="points">
              <mxPoint x="-40" y="380" />
            </Array>
          </mxGeometry>
        </mxCell>
        <mxCell id="LKiKryuv8Th7NuNmgKkL-24" value="取消收藏" style="rhombus;whiteSpace=wrap;html=1;rounded=0;" parent="LKiKryuv8Th7NuNmgKkL-1" vertex="1">
          <mxGeometry x="60" y="340" width="80" height="80" as="geometry" />
        </mxCell>
        <mxCell id="LKiKryuv8Th7NuNmgKkL-32" value="" style="edgeStyle=orthogonalEdgeStyle;rounded=0;orthogonalLoop=1;jettySize=auto;html=1;" parent="LKiKryuv8Th7NuNmgKkL-1" source="LKiKryuv8Th7NuNmgKkL-27" target="LKiKryuv8Th7NuNmgKkL-31" edge="1">
          <mxGeometry relative="1" as="geometry" />
        </mxCell>
        <mxCell id="LKiKryuv8Th7NuNmgKkL-27" value="取消成功" style="whiteSpace=wrap;html=1;rounded=0;" parent="LKiKryuv8Th7NuNmgKkL-1" vertex="1">
          <mxGeometry x="40" y="250" width="120" height="60" as="geometry" />
        </mxCell>
        <mxCell id="LKiKryuv8Th7NuNmgKkL-37" value="" style="edgeStyle=orthogonalEdgeStyle;rounded=0;orthogonalLoop=1;jettySize=auto;html=1;" parent="LKiKryuv8Th7NuNmgKkL-1" source="LKiKryuv8Th7NuNmgKkL-29" target="LKiKryuv8Th7NuNmgKkL-31" edge="1">
          <mxGeometry relative="1" as="geometry">
            <Array as="points">
              <mxPoint x="-120" y="480" />
              <mxPoint x="-120" y="370" />
            </Array>
          </mxGeometry>
        </mxCell>
        <mxCell id="LKiKryuv8Th7NuNmgKkL-29" value="保留收藏" style="whiteSpace=wrap;html=1;rounded=0;" parent="LKiKryuv8Th7NuNmgKkL-1" vertex="1">
          <mxGeometry x="-100" y="450" width="120" height="60" as="geometry" />
        </mxCell>
        <mxCell id="LKiKryuv8Th7NuNmgKkL-34" value="" style="edgeStyle=orthogonalEdgeStyle;rounded=0;orthogonalLoop=1;jettySize=auto;html=1;" parent="LKiKryuv8Th7NuNmgKkL-1" source="LKiKryuv8Th7NuNmgKkL-31" target="LKiKryuv8Th7NuNmgKkL-33" edge="1">
          <mxGeometry relative="1" as="geometry">
            <Array as="points">
              <mxPoint x="-40" y="230" />
              <mxPoint x="180" y="230" />
              <mxPoint x="180" y="280" />
            </Array>
          </mxGeometry>
        </mxCell>
        <mxCell id="LKiKryuv8Th7NuNmgKkL-42" style="edgeStyle=orthogonalEdgeStyle;rounded=0;orthogonalLoop=1;jettySize=auto;html=1;entryX=0.5;entryY=1;entryDx=0;entryDy=0;" parent="LKiKryuv8Th7NuNmgKkL-1" source="LKiKryuv8Th7NuNmgKkL-31" target="LKiKryuv8Th7NuNmgKkL-38" edge="1">
          <mxGeometry relative="1" as="geometry">
            <Array as="points">
              <mxPoint x="-95" y="330" />
            </Array>
          </mxGeometry>
        </mxCell>
        <mxCell id="LKiKryuv8Th7NuNmgKkL-31" value="学习课程" style="rhombus;whiteSpace=wrap;html=1;rounded=0;" parent="LKiKryuv8Th7NuNmgKkL-1" vertex="1">
          <mxGeometry x="-80" y="290" width="80" height="80" as="geometry" />
        </mxCell>
        <mxCell id="LKiKryuv8Th7NuNmgKkL-35" value="" style="edgeStyle=orthogonalEdgeStyle;rounded=0;orthogonalLoop=1;jettySize=auto;html=1;" parent="LKiKryuv8Th7NuNmgKkL-1" source="LKiKryuv8Th7NuNmgKkL-33" target="LKiKryuv8Th7NuNmgKkL-4" edge="1">
          <mxGeometry relative="1" as="geometry" />
        </mxCell>
        <mxCell id="LKiKryuv8Th7NuNmgKkL-33" value="取消学习" style="whiteSpace=wrap;html=1;rounded=0;" parent="LKiKryuv8Th7NuNmgKkL-1" vertex="1">
          <mxGeometry x="190" y="250" width="120" height="60" as="geometry" />
        </mxCell>
        <mxCell id="LKiKryuv8Th7NuNmgKkL-44" style="edgeStyle=orthogonalEdgeStyle;rounded=0;orthogonalLoop=1;jettySize=auto;html=1;entryX=0.5;entryY=1;entryDx=0;entryDy=0;" parent="LKiKryuv8Th7NuNmgKkL-1" source="LKiKryuv8Th7NuNmgKkL-38" target="LKiKryuv8Th7NuNmgKkL-43" edge="1">
          <mxGeometry relative="1" as="geometry" />
        </mxCell>
        <mxCell id="LKiKryuv8Th7NuNmgKkL-38" value="课程详情" style="whiteSpace=wrap;html=1;rounded=0;" parent="LKiKryuv8Th7NuNmgKkL-1" vertex="1">
          <mxGeometry x="-130" y="230" width="70" height="60" as="geometry" />
        </mxCell>
        <mxCell id="LKiKryuv8Th7NuNmgKkL-43" value="结束" style="rounded=1;whiteSpace=wrap;html=1;" parent="LKiKryuv8Th7NuNmgKkL-1" vertex="1">
          <mxGeometry x="-110" y="140" width="120" height="60" as="geometry" />
        </mxCell>
      </root>
    </mxGraphModel>
  </diagram>
</mxfile>
